<svg id="Layer_1" data-name="Layer 1" xmlns="http://www.w3.org/2000/svg" viewBox="0 0 1596.94 1512"><defs><style>.cls-1{fill:#1a3451;}.cls-2{fill:none;stroke:#1a3451;stroke-miterlimit:10;stroke-width:2px;}</style></defs><title>mapbase</title><rect class="cls-1" x="1108.54" y="1069.26" width="19.25" height="19.25" transform="translate(-641.98 921.42) rotate(-38.62)"/><rect class="cls-1" x="970.06" y="1152.17" width="12.15" height="33.38" transform="translate(-758.59 1218.04) rotate(-52.45)"/><rect class="cls-1" x="914.12" y="1206.27" width="26.8" height="11.36" transform="translate(-810.33 1133.58) rotate(-50.1)"/><rect class="cls-1" x="917.15" y="1232.93" width="24.67" height="43.5" transform="translate(-842.41 1150.4) rotate(-50.1)"/><rect class="cls-1" x="790.04" y="1234.89" width="22.96" height="28.17" transform="translate(-883.9 1050.19) rotate(-50.1)"/><polygon class="cls-1" points="773.45 1192.92 779.4 1197.5 772.55 1206.41 762.17 1198.42 768.76 1189.84 762.81 1185.27 769.66 1176.38 780.04 1184.34 773.45 1192.92"/><rect class="cls-1" x="1083.39" y="1070.26" width="14.86" height="12.73" transform="translate(-646.55 903.86) rotate(-38.62)"/><polygon class="cls-1" points="950.42 989.17 915.32 1017.22 911.71 1012.71 936.86 992.64 930.23 984.34 935.91 979.79 942.55 988.11 946.82 984.7 950.42 989.17"/><polygon class="cls-1" points="947.63 1047.04 962.25 1065.37 950.1 1075.09 919.66 1036.99 931.82 1027.27 941.82 1039.79 952.61 1031.16 942.63 1018.65 949.62 1013.05 965.41 1032.82 960.1 1037.06 958.41 1038.41 947.63 1047.04"/><path class="cls-2" d="M1324.2,863.9c-10.07,8.56-48.31,29.7-48.31,29.7s31.05,10.86,37.62,30.57c3,9.07-105.41,130.91-117.44,120.86-35.07-29.29-33.53-25.66-47.84-18.95-32.65,15.32-17.27,27.78-2.28,52.8,3.22,5.38-10.32,12.81-15.59,13.31-27,2.55-28.17,9.86-47,11.16-15,2.68-39.54,32.16-55.93,39s-35.11-2.07-47.16-2.07-59,22.36-59,22.36-59.33,60.74-93.15,95.72a91.47,91.47,0,0,0-19.23,29.53,622.64,622.64,0,0,0-27.7,88.19c-3.43,12.9-66.91,68.12-75.58,68.12-11.69,2.22-21.57-7.46-28.62-14.91-8-6.74-12.7-26.61-20.36-77.8" transform="translate(-213.13 -12.47)"/><path class="cls-2" d="M1772.52,1244.57c2.69-82-8.28-96.23-30.64-91.37s-26.87-3.76-58.58,6.45c-36.55,21.5-96.21-39.77-163.93-40.85-69.33-12.36-47.3-57-55.9-123.62-30.64-44.55-48.61-13.09-66.11,5.37-23.11,32.25-37.62,29.14-53.21,12.7-5.37-51.93-38.7-101.24-82.77-119.66,58-32.43,58.69-42.35,58.69-42.35s-56.31,11.15-62.14,24.76c-47.07,50.91-95.44,92.93-150.27,122.93-68,105.57-189.91,153.85-189.91,153.85L726.13,1041.7l-148.41-10.52L282.64,742.56l53.75-76.32" transform="translate(-213.13 -12.47)"/><path class="cls-2" d="M1388.76,1249s275.51,43.43,306.36,43.43,22.57,4.84,41.92,9.14c14,0,27.41-1.07,27.41-1.07a203.8,203.8,0,0,0,8.06-55.9" transform="translate(-213.13 -12.47)"/><path class="cls-2" d="M863.11,1244.57s248.25,96,332.7,279.49" transform="translate(-213.13 -12.47)"/><path class="cls-2" d="M1809.61,1098.37s-47.2,24.41-46.67,61.06" transform="translate(-213.13 -12.47)"/><path class="cls-2" d="M726.13,1041.7s-8.31-55.87,30.56-83.08c44.55-31.17,77.53-49,97.42-194.11,0,0,117-11.21,281-108,0,0,77.3,25.18,108,19.89s13.39,22.07,84.38,24.19c10.6,4.24,5.37,17.28,5.37,22.57s34.4,12.36,34.4,12.36" transform="translate(-213.13 -12.47)"/><path class="cls-2" d="M955.1,876.4s-41.56-56.17,26.26-112.33c25.26-15.59,17.2-40.85,17.2-40.85" transform="translate(-213.13 -12.47)"/><path class="cls-2" d="M917.76,1152.79c146-69.2,189.91-153.85,189.91-153.85C1012,943,955.1,876.4,955.1,876.4" transform="translate(-213.13 -12.47)"/><path class="cls-2" d="M854.11,764.52S747,686.39,965.75,606.25" transform="translate(-213.13 -12.47)"/><path class="cls-2" d="M998.56,723.22S923.31,462,916.32,404.49C861,293.24,751.32,126.62,627.7,13.21" transform="translate(-213.13 -12.47)"/><path class="cls-2" d="M944.7,527.88s42-31.7,67.83-31.17c0,0,18.63-14.36,27.95-21.82,25.5-20.42,28.49-16.12,48.91-26.34,13.15-6.58,19.25-20.9,33.86-29s15.37-11.22,46.22-21.5c17.74-14.51,21.42-7.94,32.79-25.8,0,0,26.12,59.81,57,115,0,0-.31,12.28-32.79,58.58s-46.52,86.48-91.37,110.72" transform="translate(-213.13 -12.47)"/><path class="cls-2" d="M917.76,1152.79L726.13,1041.7c-5.51-23.65,8.93-59.49,8.93-59.49s-4.7-152,10.88-227.07c15.35-73.89,43.54-78.15,70.41-115.77C844.84,592.61,943.41,523,943.41,523L939,505.68s-58.64,42.85-144.63,60.05c-160.63,16.12-161.67-22.1-259.06-10.21-90.22,29.32-85.57,45.75-152.11,55.9-19.17,0-46.76,54.82-46.76,54.82-20.3-19.17-30.77-30.05-30.77-44.71s-0.63-40.4-18.68-56.87-37-33.13-38.16-60.2-35.11-48.91-35.11-48.91" transform="translate(-213.13 -12.47)"/><path class="cls-2" d="M863.11,1244.57s-38.16,24.19-44.61,48.91-16.66,64-19.35,70.95-12.36,23.65-27.95,38.7-39.77,36-44.07,43.54-29,14.51-50.52,3.22S643.29,1344,643.29,1332.71s-1.61-77.4-4.3-88.15,6.45-31.17,8.06-36.55-22-71.48-33.32-93-35.4-69.29-36-83.85" transform="translate(-213.13 -12.47)"/><line class="cls-2" x1="649.99" y1="1282.61" x2="616.75" y2="1260.85"/></svg>